<?xml version="1.0" standalone="no"?>
<!DOCTYPE svg PUBLIC "-//W3C//DTD SVG 20010904//EN"
 "http://www.w3.org/TR/2001/REC-SVG-20010904/DTD/svg10.dtd">
<svg version="1.0" xmlns="http://www.w3.org/2000/svg"
 width="419.000000pt" height="460.000000pt" viewBox="0 0 419.000000 460.000000"
 preserveAspectRatio="xMidYMid meet">
<metadata>
Created by potrace 1.16, written by Peter Selinger 2001-2019
</metadata>
<g transform="translate(0.000000,460.000000) scale(0.100000,-0.100000)"
fill="#fff" stroke="none">
<path d="M1195 4504 c-136 -16 -331 -71 -428 -120 -100 -52 -188 -139 -247
-244 -25 -46 -70 -104 -116 -150 -154 -155 -259 -329 -305 -505 -21 -79 -24
-112 -24 -270 1 -173 2 -183 30 -265 40 -114 145 -305 205 -372 86 -96 238
-158 441 -179 107 -11 169 -4 289 31 139 41 333 90 353 90 18 0 26 -11 42 -57
25 -72 54 -93 133 -100 55 -5 62 -8 62 -28 0 -40 97 -108 128 -89 28 18 21 56
-15 79 -21 13 -34 31 -39 52 -9 46 -31 60 -106 68 -73 7 -72 6 -92 98 -11 47
-40 67 -98 67 -82 0 -215 -25 -360 -67 -121 -34 -143 -37 -248 -37 -188 2
-329 51 -411 142 -48 53 -158 247 -182 322 -42 126 -48 387 -13 515 40 146
134 301 268 441 60 63 86 100 116 166 66 142 114 183 310 265 242 101 259 105
521 110 164 4 232 2 227 -5 -20 -32 53 -203 105 -246 40 -34 122 -76 147 -76
11 0 39 -14 63 -32 128 -93 185 -128 209 -128 37 0 79 35 101 84 23 50 23 62
4 70 -10 4 -21 -7 -35 -35 -12 -22 -32 -45 -45 -51 -22 -10 -33 -5 -97 39
-137 94 -149 102 -181 108 -66 15 -135 63 -162 115 -7 14 -16 55 -20 92 -7 61
-9 67 -33 73 -15 4 -29 10 -32 15 -6 10 -400 21 -465 14z"/>
<path d="M2290 4211 l0 -49 73 -17 c39 -10 108 -31 152 -48 77 -29 86 -30 257
-31 97 -1 179 -4 183 -7 3 -4 19 -60 35 -124 39 -155 109 -290 204 -392 65
-69 70 -79 97 -171 15 -53 32 -125 38 -158 9 -60 41 -136 61 -149 5 -3 39 -45
75 -93 74 -100 143 -152 212 -160 24 -2 104 3 178 13 107 14 135 21 135 33 0
13 -11 14 -72 8 -214 -19 -233 -19 -267 -1 -40 20 -67 51 -136 151 -27 40 -62
90 -77 111 -19 26 -30 59 -37 103 -5 36 -23 112 -41 168 -30 92 -39 109 -97
174 -96 109 -168 249 -199 390 -14 62 -32 124 -40 136 -21 32 -65 48 -154 56
-169 15 -268 30 -315 48 -84 34 -178 58 -222 58 l-43 0 0 -49z"/>
<path d="M4078 2888 c-16 -25 -37 -81 -63 -173 -20 -69 -75 -185 -112 -233
-13 -18 -63 -65 -110 -105 -196 -164 -279 -259 -351 -402 -41 -82 -52 -151
-52 -329 -1 -83 -5 -184 -9 -224 -11 -89 -30 -113 -131 -166 -73 -39 -126 -90
-137 -134 -8 -33 -8 -48 2 -244 l8 -156 -29 -27 c-16 -15 -53 -42 -83 -59 -59
-34 -60 -35 -150 -227 -78 -165 -142 -216 -326 -259 -49 -12 -123 -30 -162
-41 -40 -10 -84 -19 -98 -19 -34 0 -61 30 -75 82 -29 108 -45 147 -81 209 -22
39 -51 111 -69 175 -48 172 -81 266 -108 308 -13 22 -31 56 -39 75 -8 20 -30
61 -48 91 -18 30 -36 71 -40 90 -10 58 12 158 55 248 35 74 40 92 40 155 -1
46 -8 92 -21 127 -10 30 -28 88 -39 128 -26 99 -64 165 -126 221 -71 63 -74
89 -18 151 34 38 38 60 9 60 -7 0 -32 -21 -54 -46 -35 -40 -41 -54 -41 -90 0
-39 5 -49 45 -86 65 -61 101 -121 125 -213 12 -44 28 -95 37 -114 8 -18 19
-65 25 -104 l10 -71 -49 -100 c-46 -96 -48 -105 -51 -202 l-4 -102 47 -88 c26
-49 65 -118 86 -154 24 -41 53 -116 79 -205 46 -161 74 -234 108 -290 14 -22
42 -87 62 -144 42 -119 62 -144 124 -160 74 -18 124 -14 321 31 120 27 184 59
257 126 53 49 69 74 129 198 l69 141 67 39 c111 64 129 128 109 400 -10 129
-5 144 57 175 75 38 146 91 173 131 34 49 42 101 44 283 2 227 12 300 48 374
55 109 150 219 270 314 108 85 178 158 219 227 26 43 68 177 78 245 4 28 18
74 31 102 l23 53 -22 15 c-29 21 -42 19 -59 -7z"/>
<path d="M3978 1497 c-15 -7 -53 -43 -85 -82 -36 -43 -82 -84 -118 -106 -77
-46 -93 -84 -75 -174 7 -33 14 -73 17 -88 3 -17 -7 -67 -27 -128 -29 -87 -32
-107 -24 -147 7 -37 13 -47 29 -47 18 0 20 6 17 60 -3 44 2 75 18 114 36 93
42 140 25 196 -16 53 -19 103 -9 130 4 9 28 27 53 40 26 13 77 55 114 94 37
39 69 71 72 71 12 0 4 -274 -11 -351 -29 -156 -89 -326 -126 -357 -9 -7 -39
-15 -67 -19 -55 -6 -85 -35 -79 -76 3 -19 10 -22 58 -25 77 -4 154 35 192 98
35 57 81 190 105 300 23 107 24 383 2 444 -18 51 -45 68 -81 53z"/>
</g>
</svg>
